<svg width="36" height="40" viewBox="0 0 36 40" fill="none" xmlns="http://www.w3.org/2000/svg">
<path fill-rule="evenodd" clip-rule="evenodd" d="M5.0005 21.9185C5.0005 14.7388 10.8205 8.91846 18.0005 8.91846C25.1798 8.91846 31.0005 14.7392 31.0005 21.9185C31.0005 22.2032 30.9913 22.4865 30.973 22.7679C30.9906 22.8423 31 22.92 31 22.9999C31 23.1426 30.9701 23.2783 30.9162 23.4011C30.5434 26.6632 28.9501 29.6376 26.4633 31.7749C26.1965 32.0041 25.829 32.0764 25.4953 31.9651C23.0684 31.1562 20.5532 30.7365 18.0005 30.7365C15.4473 30.7365 12.9331 31.156 10.5046 31.9652C10.171 32.0764 9.80343 32.0041 9.53671 31.7749C7.05095 29.6385 5.45833 26.6653 5.08506 23.4041C5.03038 23.2805 5 23.1437 5 22.9999C5 22.9188 5.00963 22.8401 5.02782 22.7646C5.00967 22.4843 5.0005 22.2021 5.0005 21.9185ZM28.9993 21.9999H27L26.8834 22.0066C26.386 22.0644 26 22.487 26 22.9999C26 23.5521 26.4477 23.9999 27 23.9999H28.8027C28.3758 26.2181 27.2736 28.2406 25.6464 29.8143L25.568 29.8869L24.9955 29.7182C22.7193 29.071 20.3754 28.7365 18.0005 28.7365L17.4074 28.7434C15.0376 28.799 12.703 29.1872 10.432 29.8879L10.3537 29.8144C8.72679 28.2409 7.6249 26.2183 7.19822 23.9999H9L9.11662 23.9931C9.61396 23.9354 10 23.5127 10 22.9999C10 22.4476 9.55228 21.9999 9 21.9999H7.0008L7.0005 21.9185C7.0005 16.1806 11.3936 11.4688 17 10.9633V12.9188L17.0067 13.0354C17.0645 13.5327 17.4872 13.9188 18 13.9188C18.5523 13.9188 19 13.471 19 12.9188V10.9633C24.6064 11.4683 29.0005 16.1807 29.0005 21.9185L28.9993 21.9999ZM20 24.5819C20 25.6859 19.104 26.5819 18 26.5819C16.896 26.5819 16 25.6859 16 24.5819C16 23.8329 16.918 20.1189 17.51 17.7999C17.64 17.2909 18.36 17.2909 18.49 17.7999C19.082 20.1189 20 23.8329 20 24.5819Z" fill="#08A652"/>
</svg>
