<svg width="36" height="40" viewBox="0 0 36 40" fill="none" xmlns="http://www.w3.org/2000/svg">
<circle cx="18" cy="20" r="18" fill="#8D8D8D" fill-opacity="0.08"/>
<path d="M8.5654 11.3692C8.24718 11.3906 8 11.655 8 11.9739V29.3518C8 29.7025 8.29678 29.98 8.64672 29.9565L28.0523 28.6519C28.4755 28.6235 28.7393 28.1802 28.5625 27.7947L24.8865 19.7768C24.8147 19.62 24.813 19.44 24.8819 19.282L28.5302 10.9138C28.7118 10.4972 28.3874 10.0364 27.934 10.0669L8.5654 11.3692Z" fill="#16A121"/>
<path d="M8.5654 11.3692C8.24718 11.3906 8 11.655 8 11.9739V29.3518C8 29.7025 8.29678 29.98 8.64672 29.9565L28.0523 28.6519C28.4755 28.6235 28.7393 28.1802 28.5625 27.7947L24.8865 19.7768C24.8147 19.62 24.813 19.44 24.8819 19.282L28.5302 10.9138C28.7118 10.4972 28.3874 10.0364 27.934 10.0669L8.5654 11.3692Z" fill="url(#paint0_linear)"/>
<path d="M8.5654 11.3692C8.24718 11.3906 8 11.655 8 11.9739V29.3518C8 29.7025 8.29678 29.98 8.64672 29.9565L28.0523 28.6519C28.4755 28.6235 28.7393 28.1802 28.5625 27.7947L24.8865 19.7768C24.8147 19.62 24.813 19.44 24.8819 19.282L28.5302 10.9138C28.7118 10.4972 28.3874 10.0364 27.934 10.0669L8.5654 11.3692Z" fill="url(#paint1_radial)"/>
<path d="M8.5654 11.3692C8.24718 11.3906 8 11.655 8 11.9739V29.3518C8 29.7025 8.29678 29.98 8.64672 29.9565L28.0523 28.6519C28.4755 28.6235 28.7393 28.1802 28.5625 27.7947L24.8865 19.7768C24.8147 19.62 24.813 19.44 24.8819 19.282L28.5302 10.9138C28.7118 10.4972 28.3874 10.0364 27.934 10.0669L8.5654 11.3692Z" fill="url(#paint2_radial)"/>
<path d="M8.5654 11.3692C8.24718 11.3906 8 11.655 8 11.9739V29.3518C8 29.7025 8.29678 29.98 8.64672 29.9565L28.0523 28.6519C28.4755 28.6235 28.7393 28.1802 28.5625 27.7947L24.8865 19.7768C24.8147 19.62 24.813 19.44 24.8819 19.282L28.5302 10.9138C28.7118 10.4972 28.3874 10.0364 27.934 10.0669L8.5654 11.3692Z" fill="url(#paint3_radial)"/>
<path d="M8.5654 11.3692C8.24718 11.3906 8 11.655 8 11.9739V29.3518C8 29.7025 8.29678 29.98 8.64672 29.9565L28.0523 28.6519C28.4755 28.6235 28.7393 28.1802 28.5625 27.7947L24.8865 19.7768C24.8147 19.62 24.813 19.44 24.8819 19.282L28.5302 10.9138C28.7118 10.4972 28.3874 10.0364 27.934 10.0669L8.5654 11.3692Z" fill="url(#paint4_radial)"/>
<path d="M8.5654 11.3692C8.24718 11.3906 8 11.655 8 11.9739V29.3518C8 29.7025 8.29678 29.98 8.64672 29.9565L28.0523 28.6519C28.4755 28.6235 28.7393 28.1802 28.5625 27.7947L24.8865 19.7768C24.8147 19.62 24.813 19.44 24.8819 19.282L28.5302 10.9138C28.7118 10.4972 28.3874 10.0364 27.934 10.0669L8.5654 11.3692Z" fill="url(#paint5_radial)"/>
<path d="M16.5 16.5C16.5001 16.2897 16.4813 16.0799 16.4439 15.8729L15.6905 16.4282C15.6912 16.452 15.6915 16.476 15.6915 16.5C15.6915 17.9841 14.4841 19.1915 13 19.1915C11.5159 19.1915 10.3085 17.9841 10.3085 16.5C10.3085 15.0159 11.5159 13.8085 13 13.8085C13.5417 13.8079 14.0708 13.9717 14.5174 14.2783L15.1981 13.7765C14.5763 13.273 13.8001 12.9988 13 13C11.067 13 9.5 14.567 9.5 16.5C9.5 18.433 11.067 20 13 20C14.933 20 16.5 18.433 16.5 16.5Z" fill="white"/>
<path d="M15.724 14.3535C15.8957 14.5752 16.041 14.8162 16.1569 15.0716L12.8654 17.4974L11.4902 16.6352V15.5981L12.8654 16.4603L15.724 14.3535Z" fill="white"/>
<defs>
<linearGradient id="paint0_linear" x1="8.09945" y1="9.99999" x2="8.09945" y2="30" gradientUnits="userSpaceOnUse">
<stop stop-color="#4DC337"/>
<stop offset="1" stop-color="#79D922"/>
</linearGradient>
<radialGradient id="paint1_radial" cx="0" cy="0" r="1" gradientUnits="userSpaceOnUse" gradientTransform="translate(25.3399 20.9768) rotate(140.113) scale(15.2331 15.1459)">
<stop offset="0.0291242" stop-color="#43E9AA"/>
<stop offset="1" stop-color="#43E9AA" stop-opacity="0.01"/>
</radialGradient>
<radialGradient id="paint2_radial" cx="0" cy="0" r="1" gradientUnits="userSpaceOnUse" gradientTransform="translate(8.90556 9.99999) rotate(57.4259) scale(11.8362 12.0221)">
<stop stop-color="#3DE9AF"/>
<stop offset="1" stop-color="#3FE9AF" stop-opacity="0.01"/>
</radialGradient>
<radialGradient id="paint3_radial" cx="0" cy="0" r="1" gradientUnits="userSpaceOnUse" gradientTransform="translate(28.6435 29.4602) rotate(-126.898) scale(13.6427 13.7879)">
<stop stop-color="#15A214"/>
<stop offset="1" stop-color="#15A214" stop-opacity="0.01"/>
</radialGradient>
<radialGradient id="paint4_radial" cx="0" cy="0" r="1" gradientUnits="userSpaceOnUse" gradientTransform="translate(27.9868 9.99999) rotate(118.409) scale(17.6507 18.0082)">
<stop offset="0.228758" stop-color="#0087CD"/>
<stop offset="1" stop-color="#049CEE" stop-opacity="0.01"/>
</radialGradient>
<radialGradient id="paint5_radial" cx="0" cy="0" r="1" gradientUnits="userSpaceOnUse" gradientTransform="translate(8.96794 29.1) rotate(-50.6453) scale(10.3138 10.3928)">
<stop stop-color="#FEF600"/>
<stop offset="1" stop-color="#FEF600" stop-opacity="0.01"/>
</radialGradient>
</defs>
</svg>
